# xmcd
#
# Track frame offsets:
#	150
#	21095
#	37282
#	52765
#	72642
#	93365
#	113750
#	134190
#	153977
#	172327
#	190355
#	211312
#	231727
#
# Disc length: 3381 seconds
#
# Revision: 5
# Processed by: cddbd v1.5.2PL0 Copyright (c) Steve Scherf et al.
# Submitted via: EasyCDDAExtractor 15.3.0.1
#
DISCID=c90d330d
DTITLE=Marta Sanchez - Desconocida
DYEAR=1998
DGENRE=Latin
TTITLE0=Desconocida
TTITLE1=Sera
TTITLE2=Quiero Mas De Ti
TTITLE3=Los Mejores Años De Nuestra Vida (I Migliori Anni Della Nostra Vita)
TTITLE4=Despues De Ti
TTITLE5=Estrellas De Fuego
TTITLE6=Corazon Que Mira Al Sur
TTITLE7=Loca De Amor
TTITLE8=Habla El Corazon
TTITLE9=Inocente
TTITLE10=Mas De Lo Que Pedi
TTITLE11=Como Tu Y Yo
TTITLE12=Desconocida (Bombay Mix)
EXTD=
EXTT0=
EXTT1=
EXTT2=
EXTT3=
EXTT4=
EXTT5=
EXTT6=
EXTT7=
EXTT8=
EXTT9=
EXTT10=
EXTT11=
EXTT12=
PLAYORDER=
